<?xml version="1.0" encoding="UTF-8" standalone="no"?>
<!DOCTYPE svg PUBLIC "-//W3C//DTD SVG 1.1//EN" "http://www.w3.org/Graphics/SVG/1.1/DTD/svg11.dtd">
<svg width="100%" height="100%" viewBox="0 0 1661 1034" version="1.1" xmlns="http://www.w3.org/2000/svg" xmlns:xlink="http://www.w3.org/1999/xlink" xml:space="preserve" xmlns:serif="http://www.serif.com/" style="fill-rule:evenodd;clip-rule:evenodd;stroke-linecap:round;stroke-linejoin:round;stroke-miterlimit:1.5;">
    <g transform="matrix(0.888606,0.973252,-1.21243,1.10698,1980.1,-2224.65)">
        <path d="M848.516,2072.48L848.516,1486.19" style="fill:none;stroke:rgb(173,173,173);stroke-width:13.99px;"/>
    </g>
    <g transform="matrix(1,0,0,1,-330.163,-1274.88)">
        <circle cx="897.622" cy="1983.05" r="13.242" style="fill:rgb(255,0,65);stroke:rgb(255,8,0);stroke-width:20.83px;"/>
    </g>
    <g transform="matrix(1,0,0,1,-56.5436,-1274.88)">
        <circle cx="897.622" cy="1983.05" r="13.242" style="fill:rgb(255,0,65);stroke:rgb(255,8,0);stroke-width:20.83px;"/>
    </g>
    <g transform="matrix(1,0,0,1,191.207,-1274.88)">
        <circle cx="897.622" cy="1983.05" r="13.242" style="fill:rgb(255,0,65);stroke:rgb(255,8,0);stroke-width:20.83px;"/>
    </g>
    <g transform="matrix(1,0,0,1,191.207,-1274.88)">
        <circle cx="897.622" cy="1983.05" r="13.242" style="fill:rgb(255,0,65);stroke:rgb(255,8,0);stroke-width:20.83px;"/>
    </g>
    <g transform="matrix(1,0,0,1,-330.163,-1489.64)">
        <circle cx="897.622" cy="1983.05" r="13.242" style="fill:rgb(255,0,65);stroke:rgb(255,8,0);stroke-width:20.83px;"/>
    </g>
    <g transform="matrix(1,0,0,1,-56.5436,-1489.64)">
        <circle cx="897.622" cy="1983.05" r="13.242" style="fill:rgb(255,0,65);stroke:rgb(255,8,0);stroke-width:20.83px;"/>
    </g>
    <g transform="matrix(1,0,0,1,191.207,-1489.64)">
        <circle cx="897.622" cy="1983.05" r="13.242" style="fill:rgb(255,0,65);stroke:rgb(255,8,0);stroke-width:20.83px;"/>
    </g>
    <g transform="matrix(1,0,0,1,191.207,-1489.64)">
        <circle cx="897.622" cy="1983.05" r="13.242" style="fill:rgb(255,0,65);stroke:rgb(255,8,0);stroke-width:20.83px;"/>
    </g>
    <g transform="matrix(1,0,0,1,27.4844,-1612.85)">
        <circle cx="897.622" cy="1983.05" r="13.242" style="fill:rgb(235,235,235);stroke:rgb(0,10,255);stroke-width:20.83px;"/>
    </g>
    <g transform="matrix(1,0,0,1,301.103,-1612.85)">
        <circle cx="897.622" cy="1983.05" r="13.242" style="fill:rgb(235,235,235);stroke:rgb(0,10,255);stroke-width:20.83px;"/>
    </g>
    <g transform="matrix(1,0,0,1,548.854,-1612.85)">
        <circle cx="897.622" cy="1983.05" r="13.242" style="fill:rgb(235,235,235);stroke:rgb(0,10,255);stroke-width:20.83px;"/>
    </g>
    <g transform="matrix(1,0,0,1,548.854,-1612.85)">
        <circle cx="897.622" cy="1983.05" r="13.242" style="fill:rgb(235,235,235);stroke:rgb(0,10,255);stroke-width:20.83px;"/>
    </g>
    <g transform="matrix(1,0,0,1,27.4844,-1827.62)">
        <circle cx="897.622" cy="1983.05" r="13.242" style="fill:rgb(235,235,235);stroke:rgb(0,10,255);stroke-width:20.83px;"/>
    </g>
    <g transform="matrix(1,0,0,1,301.103,-1827.62)">
        <circle cx="897.622" cy="1983.05" r="13.242" style="fill:rgb(235,235,235);stroke:rgb(0,10,255);stroke-width:20.83px;"/>
    </g>
    <g transform="matrix(1,0,0,1,548.854,-1827.62)">
        <circle cx="897.622" cy="1983.05" r="13.242" style="fill:rgb(235,235,235);stroke:rgb(0,10,255);stroke-width:20.83px;"/>
    </g>
    <g transform="matrix(1,0,0,1,548.854,-1827.62)">
        <circle cx="897.622" cy="1983.05" r="13.242" style="fill:rgb(235,235,235);stroke:rgb(0,10,255);stroke-width:20.83px;"/>
    </g>
    <g transform="matrix(1.31789,0,0,1.31789,-829.454,-1808.45)">
        <path d="M848.516,2072.48L848.516,1486.19" style="fill:none;stroke:black;stroke-width:15.81px;"/>
    </g>
    <g transform="matrix(4.04767e-17,-1.31789,0.0679992,8.30119e-18,155.718,1820.28)">
        <path d="M848.516,2072.48L848.516,1486.19" style="fill:none;stroke:black;stroke-width:4.47px;"/>
    </g>
    <g transform="matrix(-1.31789,1.37214e-15,-6.45855e-17,-0.0679992,1554.96,970.018)">
        <path d="M848.516,2072.48L848.516,1486.19" style="fill:none;stroke:black;stroke-width:4.47px;"/>
    </g>
    <g transform="matrix(-1.31789,1.37214e-15,-6.45855e-17,-0.0679992,1801.95,970.018)">
        <path d="M848.516,2072.48L848.516,1486.19" style="fill:none;stroke:black;stroke-width:4.47px;"/>
    </g>
    <g transform="matrix(-1.31789,1.37214e-15,-6.45855e-17,-0.0679992,2037.48,970.018)">
        <path d="M848.516,2072.48L848.516,1486.19" style="fill:none;stroke:black;stroke-width:4.47px;"/>
    </g>
    <g transform="matrix(-1.0566,0.787675,-0.0406416,-0.0545174,1390.05,120.8)">
        <path d="M848.516,2072.48L848.516,1486.19" style="fill:none;stroke:rgb(173,173,173);stroke-width:4.47px;"/>
    </g>
    <g transform="matrix(-1.0566,0.787675,-0.0406416,-0.0545174,1740.07,-196.847)">
        <path d="M848.516,2072.48L848.516,1486.19" style="fill:none;stroke:rgb(173,173,173);stroke-width:4.47px;"/>
    </g>
    <g transform="matrix(4.04767e-17,-1.31789,0.0679992,8.30119e-18,155.718,1617.28)">
        <path d="M848.516,2072.48L848.516,1486.19" style="fill:none;stroke:black;stroke-width:4.47px;"/>
    </g>
    <g transform="matrix(-1.8201e-16,1.31789,-1.5383,2.87309e-16,3374.73,-282.949)">
        <path d="M848.516,2072.48L848.516,1486.19" style="fill:none;stroke:black;stroke-width:14.54px;"/>
    </g>
    <g transform="matrix(1,0,0,1,-379.295,-1048.78)">
        <text x="755.439px" y="1952.46px" style="font-family:'ArialMT', 'Arial', sans-serif;font-size:50px;">2019          2020         2021</text>
    </g>
    <g transform="matrix(1,0,0,1,-666.267,-1441.01)">
        <text x="804.584px" y="1952.43px" style="font-family:'Arial-BoldMT', 'Arial', sans-serif;font-weight:700;font-size:50px;">Bern</text>
        <text x="765.717px" y="2155.71px" style="font-family:'Arial-BoldMT', 'Arial', sans-serif;font-weight:700;font-size:50px;">Zürich</text>
    </g>
    <g transform="matrix(1,0,0,1,-159.713,-1465.65)">
        <text x="755.439px" y="1952.46px" style="font-family:'ArialMT', 'Arial', sans-serif;font-size:50px;">22° <tspan x="908.123px " y="1952.46px "> </tspan>        23°             24°</text>
        <text x="755.439px" y="2155.73px" style="font-family:'ArialMT', 'Arial', sans-serif;font-size:50px;">21° <tspan x="905.439px " y="2155.73px "> </tspan>        22° <tspan x="1205.44px " y="2155.73px "> </tspan>     23°</text>
    </g>
    <g transform="matrix(1,0,0,1,198.774,-1816.03)">
        <text x="755.439px" y="1952.46px" style="font-family:'ArialMT', 'Arial', sans-serif;font-size:50px;">12° <tspan x="908.123px " y="1952.46px "> </tspan>        13°             14°</text>
        <text x="755.439px" y="2155.73px" style="font-family:'ArialMT', 'Arial', sans-serif;font-size:50px;">1<tspan x="779.536px 807.344px 827.339px 905.439px " y="2155.73px 2155.73px 2155.73px 2155.73px ">1°  </tspan>        12° <tspan x="1205.44px " y="2155.73px "> </tspan>     13°</text>
    </g>
    <g transform="matrix(6.12323e-17,-1,1,6.12323e-17,372.579,772.715)">
        <text x="109.454px" y="35.791px" style="font-family:'Arial-BoldItalicMT', 'Arial', sans-serif;font-weight:700;font-style:italic;font-size:50px;fill:rgb(255,0,65);">Summer</text>
    </g>
    <g transform="matrix(6.12323e-17,-1,1,6.12323e-17,723.361,367.53)">
        <text x="20.234px" y="35.791px" style="font-family:'Arial-BoldItalicMT', 'Arial', sans-serif;font-weight:700;font-style:italic;font-size:50px;fill:rgb(0,95,255);">W<tspan x="66.987px 80.878px " y="35.791px 35.791px ">in</tspan>ter</text>
    </g>
</svg>
