<?xml version="1.0" encoding="UTF-8" standalone="no"?>
<!DOCTYPE svg PUBLIC "-//W3C//DTD SVG 1.1//EN" "http://www.w3.org/Graphics/SVG/1.1/DTD/svg11.dtd">
<svg width="100%" height="100%" viewBox="0 0 800 498" version="1.1" xmlns="http://www.w3.org/2000/svg" xmlns:xlink="http://www.w3.org/1999/xlink" xml:space="preserve" xmlns:serif="http://www.serif.com/" style="fill-rule:evenodd;clip-rule:evenodd;stroke-linecap:round;stroke-linejoin:round;stroke-miterlimit:1.5;">
    <g transform="matrix(0.428141,0.468924,-0.584163,0.533357,954.034,-1071.86)">
        <path d="M848.516,2072.48L848.516,1486.19" style="fill:none;stroke:rgb(173,173,173);stroke-width:13.99px;"/>
    </g>
    <g transform="matrix(0.481812,0,0,0.481812,-159.076,-614.251)">
        <circle cx="897.622" cy="1983.05" r="13.242" style="fill:rgb(255,0,65);stroke:rgb(255,8,0);stroke-width:20.83px;"/>
    </g>
    <g transform="matrix(0.481812,0,0,0.481812,-27.2434,-614.251)">
        <circle cx="897.622" cy="1983.05" r="13.242" style="fill:rgb(255,0,65);stroke:rgb(255,8,0);stroke-width:20.83px;"/>
    </g>
    <g transform="matrix(0.481812,0,0,0.481812,92.1259,-614.251)">
        <circle cx="897.622" cy="1983.05" r="13.242" style="fill:rgb(255,0,65);stroke:rgb(255,8,0);stroke-width:20.83px;"/>
    </g>
    <g transform="matrix(0.481812,0,0,0.481812,92.1259,-614.251)">
        <circle cx="897.622" cy="1983.05" r="13.242" style="fill:rgb(255,0,65);stroke:rgb(255,8,0);stroke-width:20.83px;"/>
    </g>
    <g transform="matrix(0.481812,0,0,0.481812,-159.076,-717.728)">
        <circle cx="897.622" cy="1983.05" r="13.242" style="fill:rgb(255,0,65);stroke:rgb(255,8,0);stroke-width:20.83px;"/>
    </g>
    <g transform="matrix(0.481812,0,0,0.481812,-27.2434,-717.728)">
        <circle cx="897.622" cy="1983.05" r="13.242" style="fill:rgb(255,0,65);stroke:rgb(255,8,0);stroke-width:20.83px;"/>
    </g>
    <g transform="matrix(0.481812,0,0,0.481812,92.1259,-717.728)">
        <circle cx="897.622" cy="1983.05" r="13.242" style="fill:rgb(255,0,65);stroke:rgb(255,8,0);stroke-width:20.83px;"/>
    </g>
    <g transform="matrix(0.481812,0,0,0.481812,92.1259,-717.728)">
        <circle cx="897.622" cy="1983.05" r="13.242" style="fill:rgb(255,0,65);stroke:rgb(255,8,0);stroke-width:20.83px;"/>
    </g>
    <g transform="matrix(0.481812,0,0,0.481812,13.2423,-777.092)">
        <circle cx="897.622" cy="1983.05" r="13.242" style="fill:rgb(235,235,235);stroke:rgb(0,10,255);stroke-width:20.83px;"/>
    </g>
    <g transform="matrix(0.481812,0,0,0.481812,145.075,-777.092)">
        <circle cx="897.622" cy="1983.05" r="13.242" style="fill:rgb(235,235,235);stroke:rgb(0,10,255);stroke-width:20.83px;"/>
    </g>
    <g transform="matrix(0.481812,0,0,0.481812,264.444,-777.092)">
        <circle cx="897.622" cy="1983.05" r="13.242" style="fill:rgb(235,235,235);stroke:rgb(0,10,255);stroke-width:20.83px;"/>
    </g>
    <g transform="matrix(0.481812,0,0,0.481812,264.444,-777.092)">
        <circle cx="897.622" cy="1983.05" r="13.242" style="fill:rgb(235,235,235);stroke:rgb(0,10,255);stroke-width:20.83px;"/>
    </g>
    <g transform="matrix(0.481812,0,0,0.481812,13.2423,-880.57)">
        <circle cx="897.622" cy="1983.05" r="13.242" style="fill:rgb(235,235,235);stroke:rgb(0,10,255);stroke-width:20.83px;"/>
    </g>
    <g transform="matrix(0.481812,0,0,0.481812,145.075,-880.57)">
        <circle cx="897.622" cy="1983.05" r="13.242" style="fill:rgb(235,235,235);stroke:rgb(0,10,255);stroke-width:20.83px;"/>
    </g>
    <g transform="matrix(0.481812,0,0,0.481812,264.444,-880.57)">
        <circle cx="897.622" cy="1983.05" r="13.242" style="fill:rgb(235,235,235);stroke:rgb(0,10,255);stroke-width:20.83px;"/>
    </g>
    <g transform="matrix(0.481812,0,0,0.481812,264.444,-880.57)">
        <circle cx="897.622" cy="1983.05" r="13.242" style="fill:rgb(235,235,235);stroke:rgb(0,10,255);stroke-width:20.83px;"/>
    </g>
    <g transform="matrix(0.634976,0,0,0.634976,-399.641,-871.331)">
        <path d="M848.516,2072.48L848.516,1486.19" style="fill:none;stroke:black;stroke-width:15.81px;"/>
    </g>
    <g transform="matrix(1.95021e-17,-0.634976,0.0327628,3.99961e-18,75.0268,877.03)">
        <path d="M848.516,2072.48L848.516,1486.19" style="fill:none;stroke:black;stroke-width:4.47px;"/>
    </g>
    <g transform="matrix(-0.634976,6.61113e-16,-3.1118e-17,-0.0327628,749.199,467.366)">
        <path d="M848.516,2072.48L848.516,1486.19" style="fill:none;stroke:black;stroke-width:4.47px;"/>
    </g>
    <g transform="matrix(-0.634976,6.61113e-16,-3.1118e-17,-0.0327628,868.199,467.366)">
        <path d="M848.516,2072.48L848.516,1486.19" style="fill:none;stroke:black;stroke-width:4.47px;"/>
    </g>
    <g transform="matrix(-0.634976,6.61113e-16,-3.1118e-17,-0.0327628,981.683,467.366)">
        <path d="M848.516,2072.48L848.516,1486.19" style="fill:none;stroke:black;stroke-width:4.47px;"/>
    </g>
    <g transform="matrix(-0.509083,0.379511,-0.0195816,-0.0262671,669.743,58.2028)">
        <path d="M848.516,2072.48L848.516,1486.19" style="fill:none;stroke:rgb(173,173,173);stroke-width:4.47px;"/>
    </g>
    <g transform="matrix(-0.509083,0.379511,-0.0195816,-0.0262671,838.386,-94.8434)">
        <path d="M848.516,2072.48L848.516,1486.19" style="fill:none;stroke:rgb(173,173,173);stroke-width:4.47px;"/>
    </g>
    <g transform="matrix(1.95021e-17,-0.634976,0.0327628,3.99961e-18,75.0268,779.222)">
        <path d="M848.516,2072.48L848.516,1486.19" style="fill:none;stroke:black;stroke-width:4.47px;"/>
    </g>
    <g transform="matrix(-8.76947e-17,0.634976,-0.741169,1.38429e-16,1625.98,-136.328)">
        <path d="M848.516,2072.48L848.516,1486.19" style="fill:none;stroke:black;stroke-width:14.54px;"/>
    </g>
    <g transform="matrix(0.481812,0,0,0.481812,-182.749,-505.316)">
        <text x="755.439px" y="1952.46px" style="font-family:'ArialMT', 'Arial', sans-serif;font-size:50px;">2019          2020         2021</text>
    </g>
    <g transform="matrix(0.481812,0,0,0.481812,-321.015,-694.294)">
        <text x="804.584px" y="1952.43px" style="font-family:'Arial-BoldMT', 'Arial', sans-serif;font-weight:700;font-size:50px;">Bern</text>
        <text x="765.717px" y="2155.71px" style="font-family:'Arial-BoldMT', 'Arial', sans-serif;font-weight:700;font-size:50px;">Zürich</text>
    </g>
    <g transform="matrix(0.481812,0,0,0.481812,-76.9515,-706.166)">
        <text x="755.439px" y="1952.46px" style="font-family:'ArialMT', 'Arial', sans-serif;font-size:50px;">22° <tspan x="908.123px " y="1952.46px "> </tspan>        23°             24°</text>
        <text x="755.439px" y="2155.73px" style="font-family:'ArialMT', 'Arial', sans-serif;font-size:50px;">21° <tspan x="905.439px " y="2155.73px "> </tspan>        22° <tspan x="1205.44px " y="2155.73px "> </tspan>     23°</text>
    </g>
    <g transform="matrix(0.481812,0,0,0.481812,95.7716,-874.986)">
        <text x="755.439px" y="1952.46px" style="font-family:'ArialMT', 'Arial', sans-serif;font-size:50px;">12° <tspan x="908.123px " y="1952.46px "> </tspan>        13°             14°</text>
        <text x="755.439px" y="2155.73px" style="font-family:'ArialMT', 'Arial', sans-serif;font-size:50px;">1<tspan x="779.536px 807.344px 827.339px 905.439px " y="2155.73px 2155.73px 2155.73px 2155.73px ">1°  </tspan>        12° <tspan x="1205.44px " y="2155.73px "> </tspan>     13°</text>
    </g>
    <g transform="matrix(2.95025e-17,-0.481812,0.481812,2.95025e-17,179.513,372.303)">
        <text x="109.454px" y="35.791px" style="font-family:'Arial-BoldItalicMT', 'Arial', sans-serif;font-weight:700;font-style:italic;font-size:50px;fill:rgb(255,0,65);">Summer</text>
    </g>
    <g transform="matrix(2.95025e-17,-0.481812,0.481812,2.95025e-17,348.524,177.08)">
        <text x="20.234px" y="35.791px" style="font-family:'Arial-BoldItalicMT', 'Arial', sans-serif;font-weight:700;font-style:italic;font-size:50px;fill:rgb(0,95,255);">W<tspan x="66.987px 80.878px " y="35.791px 35.791px ">in</tspan>ter</text>
    </g>
</svg>
